<?xml version="1.0" encoding="UTF-8" standalone="no"?>
<!-- Created with Inkscape (http://www.inkscape.org/) -->

<svg
   xmlns:dc="http://purl.org/dc/elements/1.1/"
   xmlns:cc="http://creativecommons.org/ns#"
   xmlns:rdf="http://www.w3.org/1999/02/22-rdf-syntax-ns#"
   xmlns:svg="http://www.w3.org/2000/svg"
   xmlns="http://www.w3.org/2000/svg"
   xmlns:sodipodi="http://sodipodi.sourceforge.net/DTD/sodipodi-0.dtd"
   xmlns:inkscape="http://www.inkscape.org/namespaces/inkscape"
   version="1.1"
   width="1311.2854"
   height="226.42093"
   id="svg11263"
   inkscape:version="0.48.4+osxmenu r10012"
   sodipodi:docname="tetheron_logo.svg">
  <sodipodi:namedview
     pagecolor="#ffffff"
     bordercolor="#666666"
     borderopacity="1"
     objecttolerance="10"
     gridtolerance="10"
     guidetolerance="10"
     inkscape:pageopacity="0"
     inkscape:pageshadow="2"
     inkscape:window-width="1603"
     inkscape:window-height="850"
     id="namedview12513"
     showgrid="false"
     inkscape:zoom="0.34188263"
     inkscape:cx="1351.9078"
     inkscape:cy="-269.40246"
     inkscape:window-x="0"
     inkscape:window-y="23"
     inkscape:window-maximized="0"
     inkscape:current-layer="svg11263" />
  <defs
     id="defs11265">
    <inkscape:path-effect
       effect="spiro"
       id="path-effect6684" />
    <inkscape:path-effect
       effect="spiro"
       id="path-effect6679" />
    <inkscape:path-effect
       effect="spiro"
       id="path-effect5988" />
    <inkscape:path-effect
       effect="spiro"
       id="path-effect5990" />
  </defs>
  <metadata
     id="metadata11268">
    <rdf:RDF>
      <cc:Work
         rdf:about="">
        <dc:format>image/svg+xml</dc:format>
        <dc:type
           rdf:resource="http://purl.org/dc/dcmitype/StillImage" />
        <dc:title />
      </cc:Work>
    </rdf:RDF>
  </metadata>
  <g
     style="font-size:258.38131714px;font-style:normal;font-variant:normal;font-weight:normal;font-stretch:normal;line-height:125%;letter-spacing:0px;word-spacing:0px;fill:#ffffff;fill-opacity:1;stroke:none;font-family:Helvetica;-inkscape-font-specification:Helvetica"
     id="text5972">
    <path
       d="m 1270.0213,59.092449 c 8.6126,1.5e-4 15.9334,3.100723 21.9624,9.301728 6.201,6.029032 9.3016,13.349828 9.3018,21.962412 l 0,118.597021 -21.1873,0 0,-118.597021 c -10e-5,-2.755946 -1.0337,-5.081376 -3.1006,-6.976296 -1.8949,-2.066923 -4.2203,-3.100447 -6.9763,-3.100576 l -89.9167,0 c -2.7561,1.29e-4 -5.1676,1.033653 -7.2346,3.100576 -2.0671,1.89492 -3.1007,4.22035 -3.1006,6.976296 l 0,118.597021 -21.1873,0 0,-149.861161 121.4392,0"
       style="fill:#ffffff;font-family:Orbitron;-inkscape-font-specification:Orbitron"
       id="path12546" />
  </g>
  <g
     style="font-size:258.38131714px;font-style:normal;font-variant:normal;font-weight:normal;font-stretch:normal;line-height:125%;letter-spacing:0px;word-spacing:0px;fill:#ffffff;fill-opacity:1;stroke:none;font-family:Helvetica;-inkscape-font-specification:Helvetica"
     id="text5976">
    <path
       d="m 10.000003,22.919065 186.034547,0 0,20.928887 -82.42364,0 0,165.105658 -20.928885,0 0,-165.105658 -82.682022,0 0,-20.928887"
       style="fill:#ffffff;font-family:Orbitron;-inkscape-font-specification:Orbitron"
       id="path12553"
       inkscape:connector-curvature="0" />
    <path
       d="m 335.49991,59.092449 c 8.78482,1.5e-4 16.19175,3.100723 22.2208,9.301728 6.20098,6.029032 9.30156,13.349828 9.30172,21.962412 l 0,54.260081 -131.51609,0 0,33.0728 c -3e-5,2.7561 0.94736,5.16766 2.8422,7.23468 2.06701,1.89482 4.47856,2.84222 7.23467,2.8422 l 121.43922,0 0,21.18726 -121.43922,0 c -8.61274,0 -16.01967,-3.01444 -22.22079,-9.04334 -6.02891,-6.20114 -9.04336,-13.60806 -9.04335,-22.2208 l 0,-87.332881 c -1e-5,-8.612584 3.01444,-15.93338 9.04335,-21.962412 6.20112,-6.201005 13.60805,-9.301578 22.22079,-9.301728 l 89.9167,0 m -99.99357,64.336951 110.07044,0 0,-33.072811 c -1.4e-4,-2.755946 -1.03367,-5.081376 -3.10057,-6.976296 -1.89494,-2.066923 -4.22037,-3.100447 -6.9763,-3.100576 l -89.9167,0 c -2.75611,1.29e-4 -5.16766,1.033653 -7.23467,3.100576 -1.89484,1.89492 -2.84223,4.22035 -2.8422,6.976296 l 0,33.072811"
       style="fill:#ffffff;font-family:Orbitron;-inkscape-font-specification:Orbitron"
       id="path12555"
       inkscape:connector-curvature="0" />
    <path
       d="m 479.52325,80.279717 -64.85371,0 0,97.409753 c -3e-5,2.7561 0.94737,5.16766 2.8422,7.23468 2.06701,1.89482 4.47857,2.84222 7.23467,2.8422 l 54.77684,0 0,21.18726 -54.77684,0 c -8.785,0 -16.19192,-3.01444 -22.22079,-9.04334 -6.02891,-6.20114 -9.04336,-13.60806 -9.04334,-22.2208 l 0,-167.6894709 21.18726,0 0,49.0924499 64.85371,0 0,21.187268"
       style="fill:#ffffff;font-family:Orbitron;-inkscape-font-specification:Orbitron"
       id="path12557"
       inkscape:connector-curvature="0" />
    <path
       d="m 622.67054,59.092449 c 8.61256,1.5e-4 15.93336,3.100723 21.96241,9.301728 6.20099,6.029032 9.30156,13.349828 9.30173,21.962412 l 0,118.597021 -21.18727,0 0,-118.597021 c -1.5e-4,-2.755946 -1.03367,-5.081376 -3.10058,-6.976296 -1.89493,-2.066923 -4.22036,-3.100447 -6.97629,-3.100576 l -89.9167,0 c -2.75611,1.29e-4 -5.16767,1.033653 -7.23468,3.100576 -2.06708,1.89492 -3.10061,4.22035 -3.10057,6.976296 l 0,118.597021 -21.18727,0 0,-198.9536109 21.18727,0 0,49.0924499 100.25195,0"
       style="fill:#ffffff;font-family:Orbitron;-inkscape-font-specification:Orbitron"
       id="path12559"
       inkscape:connector-curvature="0" />
    <path
       d="m 794.22765,59.092449 c 8.78482,1.5e-4 16.19174,3.100723 22.22079,9.301728 6.20099,6.029032 9.30156,13.349828 9.30173,21.962412 l 0,54.260081 -131.51609,0 0,33.0728 c -3e-5,2.7561 0.94736,5.16766 2.84219,7.23468 2.06702,1.89482 4.47857,2.84222 7.23468,2.8422 l 121.43922,0 0,21.18726 -121.43922,0 c -8.61275,0 -16.01967,-3.01444 -22.22079,-9.04334 -6.02892,-6.20114 -9.04336,-13.60806 -9.04335,-22.2208 l 0,-87.332881 c -1e-5,-8.612584 3.01443,-15.93338 9.04335,-21.962412 6.20112,-6.201005 13.60804,-9.301578 22.22079,-9.301728 l 89.9167,0 m -99.99357,64.336951 110.07044,0 0,-33.072811 c -1.4e-4,-2.755946 -1.03367,-5.081376 -3.10058,-6.976296 -1.89493,-2.066923 -4.22036,-3.100447 -6.97629,-3.100576 l -89.9167,0 c -2.75611,1.29e-4 -5.16766,1.033653 -7.23468,3.100576 -1.89483,1.89492 -2.84222,4.22035 -2.84219,6.976296 l 0,33.072811"
       style="fill:#ffffff;font-family:Orbitron;-inkscape-font-specification:Orbitron"
       id="path12561"
       inkscape:connector-curvature="0" />
    <path
       d="m 881.7019,59.092449 84.23231,0 0,21.187268 -84.23231,0 c -2.75611,1.29e-4 -5.16767,1.033653 -7.23468,3.100576 -1.89483,1.89492 -2.84223,4.22035 -2.84219,6.976296 l 0,118.597021 -21.18727,0 0,-118.597021 c -10e-6,-8.612584 3.01443,-15.93338 9.04335,-21.962412 6.20112,-6.201005 13.60804,-9.301578 22.22079,-9.301728"
       style="fill:#ffffff;font-family:Orbitron;-inkscape-font-specification:Orbitron"
       id="path12563"
       inkscape:connector-curvature="0" />
  </g>
  <path
     inkscape:connector-curvature="0"
     style="fill:#ffffff;stroke:none"
     id="path5980"
     d="m 1020.7892,198.0402 c -13.2154,-7.25358 -23.9427,-18.9472 -30.03239,-32.73766 -6.0897,-13.79047 -7.50559,-29.5959 -3.96397,-44.24917 3.79311,-15.69376 13.29426,-29.97013 26.40286,-39.39597 13.1086,-9.42584 29.7298,-13.89065 45.7803,-12.14008 16.0504,1.75058 31.3679,9.73541 41.8716,21.99727 10.5038,12.26185 16.0486,28.69009 14.9627,44.79918 -0.9322,13.83069 -6.7006,27.28828 -16.0741,37.50079 -9.3734,10.21251 -22.2884,17.11067 -35.9887,19.22234 l 1.1476,17.7868 c 16.7628,-2.84067 32.5052,-11.38897 44.0162,-23.90127 11.511,-12.5123 18.7196,-28.91147 20.1555,-45.85251 1.4358,-16.94104 -2.9099,-34.31951 -12.1508,-48.59066 -9.241,-14.27115 -23.3201,-25.34701 -39.3657,-30.96839 -12.7037,-4.4506 -26.5867,-5.5069 -39.8069,-2.9732 -13.2202,2.53371 -25.7418,8.65721 -35.821,17.57918 -10.07926,8.92198 -17.68358,20.62263 -21.68902,33.47365 -4.00545,12.85103 -4.39352,26.81633 -1.05254,39.8559 5.48183,21.39515 21.31236,39.88334 41.60836,48.5938" />
  <path
     inkscape:connector-curvature="0"
     style="fill:#ffffff;fill-opacity:1;stroke:none"
     id="path5984"
     d="m 1068.4992,201.83137 a 14.589608,14.589608 0 0 1 -29.1792,0 14.589608,14.589608 0 1 1 29.1792,0 z" />
  <rect
     style="fill:#ffffff;fill-opacity:1;stroke:none"
     id="rect5986"
     transform="matrix(0.70710678,0.70710678,-0.70710678,0.70710678,0,0)"
     y="-661.04053"
     x="829.76343"
     height="17.270994"
     width="17.270994" />
  <path
     style="font-size:medium;font-style:normal;font-variant:normal;font-weight:normal;font-stretch:normal;text-indent:0;text-align:start;text-decoration:none;line-height:normal;letter-spacing:normal;word-spacing:normal;text-transform:none;direction:ltr;block-progression:tb;writing-mode:lr-tb;text-anchor:start;baseline-shift:baseline;color:#000000;fill:#ffffff;fill-opacity:1;fill-rule:nonzero;stroke:none;stroke-width:3.73574924;marker:none;visibility:visible;display:inline;overflow:visible;enable-background:accumulate;font-family:Sans;-inkscape-font-specification:Sans"
     d="m 1052.2812,131.96875 0,70 3.75,0 0,-70 -3.75,0 z"
     id="path5982"
     inkscape:connector-curvature="0" />
</svg>
